<svg width="45" height="43" viewBox="0 0 45 43" fill="none" xmlns="http://www.w3.org/2000/svg">
<path d="M45 35.9263V22.0941C45 20.3424 44.295 18.6654 43.0347 17.4371L27.0342 1.84251C24.5134 -0.61417 20.4866 -0.61417 17.9658 1.84251L1.96535 17.4371C0.704961 18.6654 0 20.3424 0 22.0941V35.9263C0 39.5152 2.90529 42.4312 6.50487 42.4312H38.5058C42.0947 42.4312 45 39.5259 45 35.9263Z" fill="#7C01FF"/>
<path fill-rule="evenodd" clip-rule="evenodd" d="M9.19686 27.0604V23.0122H6.28088V33.9391H9.1755V29.8589C9.19686 28.9616 9.81637 28.5344 10.3825 28.5344C10.9593 28.5344 11.3972 28.8014 11.4292 29.6773V33.9498H14.2918V29.6666C14.2918 27.0711 12.8178 26.0564 11.2583 26.0564C10.3397 26.0564 9.7416 26.3554 9.19686 27.0604ZM24.311 26.2378H21.6087L21.4485 27.0603C21.0426 26.4301 20.2842 26.0562 19.184 26.0562C16.941 26.0562 15.4349 27.808 15.4349 30.0938C15.4349 32.3475 16.706 33.9604 18.9704 34.0992C19.8356 34.1419 20.861 33.8749 21.5232 33.1272L21.6514 33.9604H24.311V26.2378ZM19.8569 31.7814C18.9918 31.7814 18.3082 31.1726 18.3082 30.0938C18.3082 29.0149 19.0024 28.3954 19.8569 28.3848C20.8717 28.3848 21.4485 29.0577 21.4485 30.0938C21.4485 31.0017 20.8289 31.7814 19.8569 31.7814ZM28.8822 26.8895C29.3094 26.3768 30.0357 26.0564 31.0291 26.0564C33.2828 26.0564 34.7782 27.7333 34.7782 30.0939C34.7782 32.5292 33.5071 33.9605 31.2427 34.0993C30.3775 34.142 29.3521 33.875 28.6899 33.1273L28.5617 33.9605H25.9982V23.0122H28.8715V26.8895H28.8822ZM28.8181 30.1793C28.8181 30.9911 29.3949 31.7922 30.3668 31.7922C31.232 31.7922 31.9156 31.1833 31.9156 30.1045C31.9156 29.0257 31.232 28.3955 30.3668 28.3955C29.3521 28.3955 28.8181 29.2394 28.8181 30.1793ZM38.9549 26.3556V33.9606H36.0603V26.3556H38.9549Z" fill="white"/>
<path d="M37.5551 8.65701C38.7467 8.65701 39.7127 7.69102 39.7127 6.4994C39.7127 5.30779 38.7467 4.3418 37.5551 4.3418C36.3635 4.3418 35.3975 5.30779 35.3975 6.4994C35.3975 7.69102 36.3635 8.65701 37.5551 8.65701Z" fill="#FF5958"/>
</svg>
